<?xml version="1.0" encoding="UTF-8" standalone="no"?>
<svg
   xmlns:dc="http://purl.org/dc/elements/1.1/"
   xmlns:cc="http://creativecommons.org/ns#"
   xmlns:rdf="http://www.w3.org/1999/02/22-rdf-syntax-ns#"
   xmlns:svg="http://www.w3.org/2000/svg"
   xmlns="http://www.w3.org/2000/svg"
   xmlns:sodipodi="http://sodipodi.sourceforge.net/DTD/sodipodi-0.dtd"
   xmlns:inkscape="http://www.inkscape.org/namespaces/inkscape"
   version="1.1"
   id="svg2"
   xml:space="preserve"
   width="365.33334"
   height="268.37332"
   viewBox="0 0 365.33334 268.37332"
   sodipodi:docname="htv7-logo-inkythuatso.ai"><metadata
     id="metadata8"><rdf:RDF><cc:Work
         rdf:about=""><dc:format>image/svg+xml</dc:format><dc:type
           rdf:resource="http://purl.org/dc/dcmitype/StillImage" /></cc:Work></rdf:RDF></metadata><defs
     id="defs6"><clipPath
       clipPathUnits="userSpaceOnUse"
       id="clipPath42"><path
         d="M 0,201.28 H 274 V 0 H 0 Z"
         id="path40" /></clipPath></defs><sodipodi:namedview
     pagecolor="#ffffff"
     bordercolor="#666666"
     borderopacity="1"
     objecttolerance="10"
     gridtolerance="10"
     guidetolerance="10"
     inkscape:pageopacity="0"
     inkscape:pageshadow="2"
     inkscape:window-width="640"
     inkscape:window-height="480"
     id="namedview4" /><g
     id="g10"
     inkscape:groupmode="layer"
     inkscape:label="htv7-logo-inkythuatso"
     transform="matrix(1.3333333,0,0,-1.3333333,0,268.37333)"><g
       id="g12"
       transform="translate(91.4561,137.229)"><path
         d="m 0,0 h -52.931 l -32.754,-56.733 h 52.931 z"
         style="fill:#d82726;fill-opacity:1;fill-rule:nonzero;stroke:none"
         id="path14" /></g><g
       id="g16"
       transform="translate(91.4561,137.229)"><path
         d="m 0,0 h -52.931 l -32.754,-56.733 h 52.931 z"
         style="fill:none;stroke:#231f20;stroke-width:1;stroke-linecap:butt;stroke-linejoin:miter;stroke-miterlimit:10;stroke-dasharray:none;stroke-opacity:1"
         id="path18" /></g><g
       id="g20"
       transform="translate(150.7266,137.229)"><path
         d="m 0,0 h -52.93 l -32.755,-56.733 h 52.929 z"
         style="fill:#51b148;fill-opacity:1;fill-rule:nonzero;stroke:none"
         id="path22" /></g><g
       id="g24"
       transform="translate(150.7266,137.229)"><path
         d="m 0,0 h -52.93 l -32.755,-56.733 h 52.929 z"
         style="fill:none;stroke:#231f20;stroke-width:1;stroke-linecap:butt;stroke-linejoin:miter;stroke-miterlimit:10;stroke-dasharray:none;stroke-opacity:1"
         id="path26" /></g><g
       id="g28"
       transform="translate(211.2402,137.229)"><path
         d="m 0,0 h -52.93 l -32.756,-56.733 h 52.93 z"
         style="fill:#35498f;fill-opacity:1;fill-rule:nonzero;stroke:none"
         id="path30" /></g><g
       id="g32"
       transform="translate(211.2402,137.229)"><path
         d="m 0,0 h -52.93 l -32.756,-56.733 h 52.93 z"
         style="fill:none;stroke:#231f20;stroke-width:1;stroke-linecap:butt;stroke-linejoin:miter;stroke-miterlimit:10;stroke-dasharray:none;stroke-opacity:1"
         id="path34" /></g><g
       id="g36"><g
         id="g38"
         clip-path="url(#clipPath42)"><text
           transform="matrix(0.93969249,0,-0.3420205,-0.93969249,192.3936,80.6904)"
           style="font-variant:normal;font-weight:bold;font-stretch:normal;font-size:92.4904px;font-family:'Myriad Pro';-inkscape-font-specification:MyriadPro-Bold;writing-mode:lr-tb;fill:#ffffff;fill-opacity:1;fill-rule:nonzero;stroke:none"
           id="text46"><tspan
             x="0"
             y="0"
             id="tspan44">7</tspan></text></g></g><g
       id="g48"
       transform="matrix(1,0,-0.34202,-0.9396899,-8054,8291.2803)"><g
         id="g50"
         transform="translate(11239.07,8677.4336)"><path
           d="m 0,0 v 11.562 h 25.899 v 0.184 L 2.607,60.119 H 16.601 L 39.893,8.879 V 0 Z"
           style="fill:none;stroke:#231f20;stroke-width:1;stroke-linecap:butt;stroke-linejoin:miter;stroke-miterlimit:10;stroke-dasharray:none;stroke-opacity:1"
           id="path52" /></g></g><g
       id="g54"
       transform="translate(16.7427,89.3877)"><path
         d="M 0,0 23.157,38.954 H 37.713 L 31.096,26.463 h 10.973 l 7.223,12.491 H 63.517 L 42.069,0 H 27.79 L 36.556,15.878 24.979,15.711 15.218,0 Z"
         style="fill:#ffffff;fill-opacity:1;fill-rule:nonzero;stroke:none"
         id="path56" /></g><g
       id="g58"
       transform="translate(91.5088,113.3711)"><path
         d="M 0,0 8.104,13.562 H 46.645 L 38.374,0 H 27.817 L 15.383,-23.983 H -2.316 l 13.563,23.816 z"
         style="fill:#ffffff;fill-opacity:1;fill-rule:nonzero;stroke:none"
         id="path60" /></g><g
       id="g62"
       transform="translate(155.5205,126.9331)"><path
         d="M 0,0 H 14.391 L 13.234,-18.314 27.791,0 H 43.504 L 13.397,-37.545 H -5.624 Z"
         style="fill:#ffffff;fill-opacity:1;fill-rule:nonzero;stroke:none"
         id="path64" /></g></g></svg>
